<?xml version="1.0" encoding="UTF-8" standalone="no"?>
<!DOCTYPE svg PUBLIC "-//W3C//DTD SVG 1.1//EN"
 "http://www.w3.org/Graphics/SVG/1.1/DTD/svg11.dtd">
<!-- Generated by graphviz version 2.43.0 (0)
 -->
<!-- Title: Tree Pages: 1 -->
<svg width="1234pt" height="400pt"
 viewBox="0.00 0.00 1233.50 400.00" xmlns="http://www.w3.org/2000/svg" xmlns:xlink="http://www.w3.org/1999/xlink">
<g id="graph0" class="graph" transform="scale(1 1) rotate(0) translate(4 396)">
<title>Tree</title>
<polygon fill="white" stroke="transparent" points="-4,4 -4,-396 1229.5,-396 1229.5,4 -4,4"/>
<!-- 0 -->
<g id="node1" class="node">
<title>0</title>
<polygon fill="#f2be99" stroke="black" points="684.5,-392 537.5,-392 537.5,-339 684.5,-339 684.5,-392"/>
<text text-anchor="middle" x="611" y="-376.8" font-family="Helvetica,sans-Serif" font-size="14.00">BMI &lt;= 29.65</text>
<text text-anchor="middle" x="611" y="-361.8" font-family="Helvetica,sans-Serif" font-size="14.00">samples = 100.0%</text>
<text text-anchor="middle" x="611" y="-346.8" font-family="Helvetica,sans-Serif" font-size="14.00">value = [0.674, 0.326]</text>
</g>
<!-- 1 -->
<g id="node2" class="node">
<title>1</title>
<polygon fill="#e89051" stroke="black" points="523.5,-303 368.5,-303 368.5,-250 523.5,-250 523.5,-303"/>
<text text-anchor="middle" x="446" y="-287.8" font-family="Helvetica,sans-Serif" font-size="14.00">BloodPressure &lt;= 67.0</text>
<text text-anchor="middle" x="446" y="-272.8" font-family="Helvetica,sans-Serif" font-size="14.00">samples = 37.3%</text>
<text text-anchor="middle" x="446" y="-257.8" font-family="Helvetica,sans-Serif" font-size="14.00">value = [0.892, 0.108]</text>
</g>
<!-- 0&#45;&gt;1 -->
<g id="edge1" class="edge">
<title>0&#45;&gt;1</title>
<path fill="none" stroke="black" d="M562.39,-338.87C543.92,-329.13 522.72,-317.95 503.51,-307.82"/>
<polygon fill="black" stroke="black" points="505.03,-304.67 494.55,-303.1 501.76,-310.86 505.03,-304.67"/>
<text text-anchor="middle" x="501.94" y="-323.28" font-family="Helvetica,sans-Serif" font-size="14.00">True</text>
</g>
<!-- 50 -->
<g id="node15" class="node">
<title>50</title>
<polygon fill="#fbece0" stroke="black" points="900.5,-303 667.5,-303 667.5,-250 900.5,-250 900.5,-303"/>
<text text-anchor="middle" x="784" y="-287.8" font-family="Helvetica,sans-Serif" font-size="14.00">DiabetesPedigreeFunction &lt;= 0.528</text>
<text text-anchor="middle" x="784" y="-272.8" font-family="Helvetica,sans-Serif" font-size="14.00">samples = 62.7%</text>
<text text-anchor="middle" x="784" y="-257.8" font-family="Helvetica,sans-Serif" font-size="14.00">value = [0.542, 0.458]</text>
</g>
<!-- 0&#45;&gt;50 -->
<g id="edge14" class="edge">
<title>0&#45;&gt;50</title>
<path fill="none" stroke="black" d="M661.97,-338.87C681.42,-329.09 703.76,-317.85 723.98,-307.68"/>
<polygon fill="black" stroke="black" points="725.73,-310.72 733.1,-303.1 722.59,-304.47 725.73,-310.72"/>
<text text-anchor="middle" x="725.24" y="-323.13" font-family="Helvetica,sans-Serif" font-size="14.00">False</text>
</g>
<!-- 2 -->
<g id="node3" class="node">
<title>2</title>
<polygon fill="#e5833d" stroke="black" points="291.5,-214 144.5,-214 144.5,-161 291.5,-161 291.5,-214"/>
<text text-anchor="middle" x="218" y="-198.8" font-family="Helvetica,sans-Serif" font-size="14.00">Age &lt;= 29.5</text>
<text text-anchor="middle" x="218" y="-183.8" font-family="Helvetica,sans-Serif" font-size="14.00">samples = 17.9%</text>
<text text-anchor="middle" x="218" y="-168.8" font-family="Helvetica,sans-Serif" font-size="14.00">value = [0.982, 0.018]</text>
</g>
<!-- 1&#45;&gt;2 -->
<g id="edge2" class="edge">
<title>1&#45;&gt;2</title>
<path fill="none" stroke="black" d="M379.13,-249.98C352.57,-239.85 321.86,-228.13 294.42,-217.66"/>
<polygon fill="black" stroke="black" points="295.46,-214.31 284.87,-214.01 292.96,-220.85 295.46,-214.31"/>
</g>
<!-- 9 -->
<g id="node8" class="node">
<title>9</title>
<polygon fill="#eb9f68" stroke="black" points="519.5,-214 372.5,-214 372.5,-161 519.5,-161 519.5,-214"/>
<text text-anchor="middle" x="446" y="-198.8" font-family="Helvetica,sans-Serif" font-size="14.00">Pregnancies &lt;= 6.5</text>
<text text-anchor="middle" x="446" y="-183.8" font-family="Helvetica,sans-Serif" font-size="14.00">samples = 19.4%</text>
<text text-anchor="middle" x="446" y="-168.8" font-family="Helvetica,sans-Serif" font-size="14.00">value = [0.808, 0.192]</text>
</g>
<!-- 1&#45;&gt;9 -->
<g id="edge7" class="edge">
<title>1&#45;&gt;9</title>
<path fill="none" stroke="black" d="M446,-249.87C446,-241.89 446,-232.93 446,-224.38"/>
<polygon fill="black" stroke="black" points="449.5,-224.25 446,-214.25 442.5,-224.25 449.5,-224.25"/>
</g>
<!-- 3 -->
<g id="node4" class="node">
<title>3</title>
<polygon fill="#e58139" stroke="black" points="122,-117.5 0,-117.5 0,-79.5 122,-79.5 122,-117.5"/>
<text text-anchor="middle" x="61" y="-102.3" font-family="Helvetica,sans-Serif" font-size="14.00">samples = 13.3%</text>
<text text-anchor="middle" x="61" y="-87.3" font-family="Helvetica,sans-Serif" font-size="14.00">value = [1.0, 0.0]</text>
</g>
<!-- 2&#45;&gt;3 -->
<g id="edge3" class="edge">
<title>2&#45;&gt;3</title>
<path fill="none" stroke="black" d="M171.74,-160.87C149.74,-148.68 123.65,-134.22 102.32,-122.4"/>
<polygon fill="black" stroke="black" points="103.94,-119.29 93.49,-117.51 100.55,-125.42 103.94,-119.29"/>
</g>
<!-- 4 -->
<g id="node5" class="node">
<title>4</title>
<polygon fill="#e88e4d" stroke="black" points="295.5,-125 140.5,-125 140.5,-72 295.5,-72 295.5,-125"/>
<text text-anchor="middle" x="218" y="-109.8" font-family="Helvetica,sans-Serif" font-size="14.00">BloodPressure &lt;= 27.0</text>
<text text-anchor="middle" x="218" y="-94.8" font-family="Helvetica,sans-Serif" font-size="14.00">samples = 4.6%</text>
<text text-anchor="middle" x="218" y="-79.8" font-family="Helvetica,sans-Serif" font-size="14.00">value = [0.909, 0.091]</text>
</g>
<!-- 2&#45;&gt;4 -->
<g id="edge4" class="edge">
<title>2&#45;&gt;4</title>
<path fill="none" stroke="black" d="M218,-160.87C218,-152.89 218,-143.93 218,-135.38"/>
<polygon fill="black" stroke="black" points="221.5,-135.25 218,-125.25 214.5,-135.25 221.5,-135.25"/>
</g>
<!-- 5 -->
<g id="node6" class="node">
<title>5</title>
<polygon fill="#c0c0c0" stroke="black" points="209,-36 155,-36 155,0 209,0 209,-36"/>
<text text-anchor="middle" x="182" y="-14.3" font-family="Helvetica,sans-Serif" font-size="14.00">(...)</text>
</g>
<!-- 4&#45;&gt;5 -->
<g id="edge5" class="edge">
<title>4&#45;&gt;5</title>
<path fill="none" stroke="black" d="M206.21,-71.8C202.34,-63.35 198.03,-53.95 194.13,-45.45"/>
<polygon fill="black" stroke="black" points="197.3,-43.96 189.95,-36.33 190.93,-46.88 197.3,-43.96"/>
</g>
<!-- 8 -->
<g id="node7" class="node">
<title>8</title>
<polygon fill="#c0c0c0" stroke="black" points="281,-36 227,-36 227,0 281,0 281,-36"/>
<text text-anchor="middle" x="254" y="-14.3" font-family="Helvetica,sans-Serif" font-size="14.00">(...)</text>
</g>
<!-- 4&#45;&gt;8 -->
<g id="edge6" class="edge">
<title>4&#45;&gt;8</title>
<path fill="none" stroke="black" d="M229.79,-71.8C233.66,-63.35 237.97,-53.95 241.87,-45.45"/>
<polygon fill="black" stroke="black" points="245.07,-46.88 246.05,-36.33 238.7,-43.96 245.07,-46.88"/>
</g>
<!-- 10 -->
<g id="node9" class="node">
<title>10</title>
<polygon fill="#e99457" stroke="black" points="460.5,-125 313.5,-125 313.5,-72 460.5,-72 460.5,-125"/>
<text text-anchor="middle" x="387" y="-109.8" font-family="Helvetica,sans-Serif" font-size="14.00">BMI &lt;= 23.3</text>
<text text-anchor="middle" x="387" y="-94.8" font-family="Helvetica,sans-Serif" font-size="14.00">samples = 14.6%</text>
<text text-anchor="middle" x="387" y="-79.8" font-family="Helvetica,sans-Serif" font-size="14.00">value = [0.867, 0.133]</text>
</g>
<!-- 9&#45;&gt;10 -->
<g id="edge8" class="edge">
<title>9&#45;&gt;10</title>
<path fill="none" stroke="black" d="M428.62,-160.87C422.85,-152.36 416.33,-142.75 410.19,-133.7"/>
<polygon fill="black" stroke="black" points="412.97,-131.56 404.46,-125.25 407.18,-135.49 412.97,-131.56"/>
</g>
<!-- 37 -->
<g id="node12" class="node">
<title>37</title>
<polygon fill="#f4caac" stroke="black" points="625.5,-125 478.5,-125 478.5,-72 625.5,-72 625.5,-125"/>
<text text-anchor="middle" x="552" y="-109.8" font-family="Helvetica,sans-Serif" font-size="14.00">Age &lt;= 56.0</text>
<text text-anchor="middle" x="552" y="-94.8" font-family="Helvetica,sans-Serif" font-size="14.00">samples = 4.9%</text>
<text text-anchor="middle" x="552" y="-79.8" font-family="Helvetica,sans-Serif" font-size="14.00">value = [0.633, 0.367]</text>
</g>
<!-- 9&#45;&gt;37 -->
<g id="edge11" class="edge">
<title>9&#45;&gt;37</title>
<path fill="none" stroke="black" d="M477.23,-160.87C488.34,-151.75 501.01,-141.35 512.71,-131.75"/>
<polygon fill="black" stroke="black" points="515.12,-134.3 520.63,-125.25 510.68,-128.89 515.12,-134.3"/>
</g>
<!-- 11 -->
<g id="node10" class="node">
<title>11</title>
<polygon fill="#c0c0c0" stroke="black" points="402,-36 348,-36 348,0 402,0 402,-36"/>
<text text-anchor="middle" x="375" y="-14.3" font-family="Helvetica,sans-Serif" font-size="14.00">(...)</text>
</g>
<!-- 10&#45;&gt;11 -->
<g id="edge9" class="edge">
<title>10&#45;&gt;11</title>
<path fill="none" stroke="black" d="M383.07,-71.8C381.82,-63.62 380.43,-54.55 379.17,-46.27"/>
<polygon fill="black" stroke="black" points="382.62,-45.69 377.65,-36.33 375.7,-46.74 382.62,-45.69"/>
</g>
<!-- 12 -->
<g id="node11" class="node">
<title>12</title>
<polygon fill="#c0c0c0" stroke="black" points="474,-36 420,-36 420,0 474,0 474,-36"/>
<text text-anchor="middle" x="447" y="-14.3" font-family="Helvetica,sans-Serif" font-size="14.00">(...)</text>
</g>
<!-- 10&#45;&gt;12 -->
<g id="edge10" class="edge">
<title>10&#45;&gt;12</title>
<path fill="none" stroke="black" d="M406.65,-71.8C413.38,-62.99 420.91,-53.14 427.62,-44.36"/>
<polygon fill="black" stroke="black" points="430.46,-46.4 433.75,-36.33 424.9,-42.15 430.46,-46.4"/>
</g>
<!-- 38 -->
<g id="node13" class="node">
<title>38</title>
<polygon fill="#c0c0c0" stroke="black" points="563,-36 509,-36 509,0 563,0 563,-36"/>
<text text-anchor="middle" x="536" y="-14.3" font-family="Helvetica,sans-Serif" font-size="14.00">(...)</text>
</g>
<!-- 37&#45;&gt;38 -->
<g id="edge12" class="edge">
<title>37&#45;&gt;38</title>
<path fill="none" stroke="black" d="M546.76,-71.8C545.09,-63.62 543.25,-54.55 541.56,-46.27"/>
<polygon fill="black" stroke="black" points="544.96,-45.43 539.53,-36.33 538.1,-46.83 544.96,-45.43"/>
</g>
<!-- 49 -->
<g id="node14" class="node">
<title>49</title>
<polygon fill="#c0c0c0" stroke="black" points="635,-36 581,-36 581,0 635,0 635,-36"/>
<text text-anchor="middle" x="608" y="-14.3" font-family="Helvetica,sans-Serif" font-size="14.00">(...)</text>
</g>
<!-- 37&#45;&gt;49 -->
<g id="edge13" class="edge">
<title>37&#45;&gt;49</title>
<path fill="none" stroke="black" d="M570.34,-71.8C576.56,-63.08 583.5,-53.34 589.72,-44.63"/>
<polygon fill="black" stroke="black" points="592.68,-46.5 595.64,-36.33 586.98,-42.44 592.68,-46.5"/>
</g>
<!-- 51 -->
<g id="node16" class="node">
<title>51</title>
<polygon fill="#f3c6a6" stroke="black" points="857.5,-214 710.5,-214 710.5,-161 857.5,-161 857.5,-214"/>
<text text-anchor="middle" x="784" y="-198.8" font-family="Helvetica,sans-Serif" font-size="14.00">BMI &lt;= 47.3</text>
<text text-anchor="middle" x="784" y="-183.8" font-family="Helvetica,sans-Serif" font-size="14.00">samples = 40.4%</text>
<text text-anchor="middle" x="784" y="-168.8" font-family="Helvetica,sans-Serif" font-size="14.00">value = [0.645, 0.355]</text>
</g>
<!-- 50&#45;&gt;51 -->
<g id="edge15" class="edge">
<title>50&#45;&gt;51</title>
<path fill="none" stroke="black" d="M784,-249.87C784,-241.89 784,-232.93 784,-224.38"/>
<polygon fill="black" stroke="black" points="787.5,-224.25 784,-214.25 780.5,-224.25 787.5,-224.25"/>
</g>
<!-- 122 -->
<g id="node21" class="node">
<title>122</title>
<polygon fill="#a4d2f3" stroke="black" points="1090.5,-214 943.5,-214 943.5,-161 1090.5,-161 1090.5,-214"/>
<text text-anchor="middle" x="1017" y="-198.8" font-family="Helvetica,sans-Serif" font-size="14.00">Insulin &lt;= 619.5</text>
<text text-anchor="middle" x="1017" y="-183.8" font-family="Helvetica,sans-Serif" font-size="14.00">samples = 22.3%</text>
<text text-anchor="middle" x="1017" y="-168.8" font-family="Helvetica,sans-Serif" font-size="14.00">value = [0.351, 0.649]</text>
</g>
<!-- 50&#45;&gt;122 -->
<g id="edge20" class="edge">
<title>50&#45;&gt;122</title>
<path fill="none" stroke="black" d="M852.33,-249.98C879.6,-239.8 911.14,-228.03 939.27,-217.52"/>
<polygon fill="black" stroke="black" points="940.52,-220.79 948.67,-214.01 938.08,-214.23 940.52,-220.79"/>
</g>
<!-- 52 -->
<g id="node17" class="node">
<title>52</title>
<polygon fill="#f2c09c" stroke="black" points="790.5,-125 643.5,-125 643.5,-72 790.5,-72 790.5,-125"/>
<text text-anchor="middle" x="717" y="-109.8" font-family="Helvetica,sans-Serif" font-size="14.00">Glucose &lt;= 158.5</text>
<text text-anchor="middle" x="717" y="-94.8" font-family="Helvetica,sans-Serif" font-size="14.00">samples = 38.6%</text>
<text text-anchor="middle" x="717" y="-79.8" font-family="Helvetica,sans-Serif" font-size="14.00">value = [0.667, 0.333]</text>
</g>
<!-- 51&#45;&gt;52 -->
<g id="edge16" class="edge">
<title>51&#45;&gt;52</title>
<path fill="none" stroke="black" d="M764.26,-160.87C757.64,-152.27 750.15,-142.55 743.12,-133.42"/>
<polygon fill="black" stroke="black" points="745.7,-131.04 736.83,-125.25 740.16,-135.31 745.7,-131.04"/>
</g>
<!-- 121 -->
<g id="node20" class="node">
<title>121</title>
<polygon fill="#399de5" stroke="black" points="925.5,-117.5 808.5,-117.5 808.5,-79.5 925.5,-79.5 925.5,-117.5"/>
<text text-anchor="middle" x="867" y="-102.3" font-family="Helvetica,sans-Serif" font-size="14.00">samples = 1.8%</text>
<text text-anchor="middle" x="867" y="-87.3" font-family="Helvetica,sans-Serif" font-size="14.00">value = [0.0, 1.0]</text>
</g>
<!-- 51&#45;&gt;121 -->
<g id="edge19" class="edge">
<title>51&#45;&gt;121</title>
<path fill="none" stroke="black" d="M808.45,-160.87C819.25,-149.55 831.92,-136.27 842.7,-124.97"/>
<polygon fill="black" stroke="black" points="845.45,-127.16 849.82,-117.51 840.39,-122.33 845.45,-127.16"/>
</g>
<!-- 53 -->
<g id="node18" class="node">
<title>53</title>
<polygon fill="#c0c0c0" stroke="black" points="726,-36 672,-36 672,0 726,0 726,-36"/>
<text text-anchor="middle" x="699" y="-14.3" font-family="Helvetica,sans-Serif" font-size="14.00">(...)</text>
</g>
<!-- 52&#45;&gt;53 -->
<g id="edge17" class="edge">
<title>52&#45;&gt;53</title>
<path fill="none" stroke="black" d="M711.11,-71.8C709.23,-63.62 707.15,-54.55 705.25,-46.27"/>
<polygon fill="black" stroke="black" points="708.62,-45.3 702.97,-36.33 701.8,-46.86 708.62,-45.3"/>
</g>
<!-- 114 -->
<g id="node19" class="node">
<title>114</title>
<polygon fill="#c0c0c0" stroke="black" points="798,-36 744,-36 744,0 798,0 798,-36"/>
<text text-anchor="middle" x="771" y="-14.3" font-family="Helvetica,sans-Serif" font-size="14.00">(...)</text>
</g>
<!-- 52&#45;&gt;114 -->
<g id="edge18" class="edge">
<title>52&#45;&gt;114</title>
<path fill="none" stroke="black" d="M734.68,-71.8C740.68,-63.08 747.38,-53.34 753.37,-44.63"/>
<polygon fill="black" stroke="black" points="756.29,-46.55 759.08,-36.33 750.53,-42.59 756.29,-46.55"/>
</g>
<!-- 123 -->
<g id="node22" class="node">
<title>123</title>
<polygon fill="#9dcff2" stroke="black" points="1090.5,-125 943.5,-125 943.5,-72 1090.5,-72 1090.5,-125"/>
<text text-anchor="middle" x="1017" y="-109.8" font-family="Helvetica,sans-Serif" font-size="14.00">Pregnancies &lt;= 8.5</text>
<text text-anchor="middle" x="1017" y="-94.8" font-family="Helvetica,sans-Serif" font-size="14.00">samples = 22.0%</text>
<text text-anchor="middle" x="1017" y="-79.8" font-family="Helvetica,sans-Serif" font-size="14.00">value = [0.336, 0.664]</text>
</g>
<!-- 122&#45;&gt;123 -->
<g id="edge21" class="edge">
<title>122&#45;&gt;123</title>
<path fill="none" stroke="black" d="M1017,-160.87C1017,-152.89 1017,-143.93 1017,-135.38"/>
<polygon fill="black" stroke="black" points="1020.5,-135.25 1017,-125.25 1013.5,-135.25 1020.5,-135.25"/>
</g>
<!-- 172 -->
<g id="node25" class="node">
<title>172</title>
<polygon fill="#e58139" stroke="black" points="1225.5,-117.5 1108.5,-117.5 1108.5,-79.5 1225.5,-79.5 1225.5,-117.5"/>
<text text-anchor="middle" x="1167" y="-102.3" font-family="Helvetica,sans-Serif" font-size="14.00">samples = 0.3%</text>
<text text-anchor="middle" x="1167" y="-87.3" font-family="Helvetica,sans-Serif" font-size="14.00">value = [1.0, 0.0]</text>
</g>
<!-- 122&#45;&gt;172 -->
<g id="edge24" class="edge">
<title>122&#45;&gt;172</title>
<path fill="none" stroke="black" d="M1061.19,-160.87C1082.12,-148.73 1106.92,-134.35 1127.25,-122.55"/>
<polygon fill="black" stroke="black" points="1129.06,-125.55 1135.95,-117.51 1125.55,-119.5 1129.06,-125.55"/>
</g>
<!-- 124 -->
<g id="node23" class="node">
<title>124</title>
<polygon fill="#c0c0c0" stroke="black" points="1008,-36 954,-36 954,0 1008,0 1008,-36"/>
<text text-anchor="middle" x="981" y="-14.3" font-family="Helvetica,sans-Serif" font-size="14.00">(...)</text>
</g>
<!-- 123&#45;&gt;124 -->
<g id="edge22" class="edge">
<title>123&#45;&gt;124</title>
<path fill="none" stroke="black" d="M1005.21,-71.8C1001.34,-63.35 997.03,-53.95 993.13,-45.45"/>
<polygon fill="black" stroke="black" points="996.3,-43.96 988.95,-36.33 989.93,-46.88 996.3,-43.96"/>
</g>
<!-- 171 -->
<g id="node24" class="node">
<title>171</title>
<polygon fill="#c0c0c0" stroke="black" points="1080,-36 1026,-36 1026,0 1080,0 1080,-36"/>
<text text-anchor="middle" x="1053" y="-14.3" font-family="Helvetica,sans-Serif" font-size="14.00">(...)</text>
</g>
<!-- 123&#45;&gt;171 -->
<g id="edge23" class="edge">
<title>123&#45;&gt;171</title>
<path fill="none" stroke="black" d="M1028.79,-71.8C1032.66,-63.35 1036.97,-53.95 1040.87,-45.45"/>
<polygon fill="black" stroke="black" points="1044.07,-46.88 1045.05,-36.33 1037.7,-43.96 1044.07,-46.88"/>
</g>
</g>
</svg>
