<?xml version="1.0" encoding="UTF-8" standalone="no"?>
<!DOCTYPE svg PUBLIC "-//W3C//DTD SVG 1.1//EN"
 "http://www.w3.org/Graphics/SVG/1.1/DTD/svg11.dtd">
<!-- Generated by graphviz version 2.43.0 (0)
 -->
<!-- Title: Tree Pages: 1 -->
<svg width="1422pt" height="400pt"
 viewBox="0.00 0.00 1422.00 400.00" xmlns="http://www.w3.org/2000/svg" xmlns:xlink="http://www.w3.org/1999/xlink">
<g id="graph0" class="graph" transform="scale(1 1) rotate(0) translate(4 396)">
<title>Tree</title>
<polygon fill="white" stroke="transparent" points="-4,4 -4,-396 1418,-396 1418,4 -4,4"/>
<!-- 0 -->
<g id="node1" class="node">
<title>0</title>
<polygon fill="#f4c9ab" stroke="black" points="662,-392 515,-392 515,-339 662,-339 662,-392"/>
<text text-anchor="middle" x="588.5" y="-376.8" font-family="Helvetica,sans-Serif" font-size="14.00">Age &lt;= 27.5</text>
<text text-anchor="middle" x="588.5" y="-361.8" font-family="Helvetica,sans-Serif" font-size="14.00">samples = 100.0%</text>
<text text-anchor="middle" x="588.5" y="-346.8" font-family="Helvetica,sans-Serif" font-size="14.00">value = [0.635, 0.365]</text>
</g>
<!-- 1 -->
<g id="node2" class="node">
<title>1</title>
<polygon fill="#eb9d65" stroke="black" points="503,-303 348,-303 348,-250 503,-250 503,-303"/>
<text text-anchor="middle" x="425.5" y="-287.8" font-family="Helvetica,sans-Serif" font-size="14.00">BloodPressure &lt;= 34.0</text>
<text text-anchor="middle" x="425.5" y="-272.8" font-family="Helvetica,sans-Serif" font-size="14.00">samples = 43.1%</text>
<text text-anchor="middle" x="425.5" y="-257.8" font-family="Helvetica,sans-Serif" font-size="14.00">value = [0.817, 0.183]</text>
</g>
<!-- 0&#45;&gt;1 -->
<g id="edge1" class="edge">
<title>0&#45;&gt;1</title>
<path fill="none" stroke="black" d="M540.48,-338.87C522.24,-329.13 501.29,-317.95 482.31,-307.82"/>
<polygon fill="black" stroke="black" points="483.93,-304.72 473.46,-303.1 480.64,-310.9 483.93,-304.72"/>
<text text-anchor="middle" x="480.73" y="-323.32" font-family="Helvetica,sans-Serif" font-size="14.00">True</text>
</g>
<!-- 66 -->
<g id="node13" class="node">
<title>66</title>
<polygon fill="#fafdfe" stroke="black" points="851,-303 704,-303 704,-250 851,-250 851,-303"/>
<text text-anchor="middle" x="777.5" y="-287.8" font-family="Helvetica,sans-Serif" font-size="14.00">BMI &lt;= 27.35</text>
<text text-anchor="middle" x="777.5" y="-272.8" font-family="Helvetica,sans-Serif" font-size="14.00">samples = 56.9%</text>
<text text-anchor="middle" x="777.5" y="-257.8" font-family="Helvetica,sans-Serif" font-size="14.00">value = [0.494, 0.506]</text>
</g>
<!-- 0&#45;&gt;66 -->
<g id="edge12" class="edge">
<title>0&#45;&gt;66</title>
<path fill="none" stroke="black" d="M643.93,-338.98C665.56,-329.03 690.52,-317.54 712.96,-307.21"/>
<polygon fill="black" stroke="black" points="714.45,-310.38 722.07,-303.01 711.52,-304.02 714.45,-310.38"/>
<text text-anchor="middle" x="713.41" y="-322.76" font-family="Helvetica,sans-Serif" font-size="14.00">False</text>
</g>
<!-- 2 -->
<g id="node3" class="node">
<title>2</title>
<polygon fill="#6ab6ec" stroke="black" points="252,-214 135,-214 135,-161 252,-161 252,-214"/>
<text text-anchor="middle" x="193.5" y="-198.8" font-family="Helvetica,sans-Serif" font-size="14.00">Age &lt;= 22.5</text>
<text text-anchor="middle" x="193.5" y="-183.8" font-family="Helvetica,sans-Serif" font-size="14.00">samples = 1.3%</text>
<text text-anchor="middle" x="193.5" y="-168.8" font-family="Helvetica,sans-Serif" font-size="14.00">value = [0.2, 0.8]</text>
</g>
<!-- 1&#45;&gt;2 -->
<g id="edge2" class="edge">
<title>1&#45;&gt;2</title>
<path fill="none" stroke="black" d="M357.46,-249.98C327.3,-238.67 291.89,-225.39 261.7,-214.08"/>
<polygon fill="black" stroke="black" points="262.7,-210.71 252.1,-210.48 260.24,-217.26 262.7,-210.71"/>
</g>
<!-- 5 -->
<g id="node6" class="node">
<title>5</title>
<polygon fill="#ea995e" stroke="black" points="502.5,-214 348.5,-214 348.5,-161 502.5,-161 502.5,-214"/>
<text text-anchor="middle" x="425.5" y="-198.8" font-family="Helvetica,sans-Serif" font-size="14.00">SkinThickness &lt;= 30.5</text>
<text text-anchor="middle" x="425.5" y="-183.8" font-family="Helvetica,sans-Serif" font-size="14.00">samples = 41.9%</text>
<text text-anchor="middle" x="425.5" y="-168.8" font-family="Helvetica,sans-Serif" font-size="14.00">value = [0.841, 0.159]</text>
</g>
<!-- 1&#45;&gt;5 -->
<g id="edge5" class="edge">
<title>1&#45;&gt;5</title>
<path fill="none" stroke="black" d="M425.5,-249.87C425.5,-241.89 425.5,-232.93 425.5,-224.38"/>
<polygon fill="black" stroke="black" points="429,-224.25 425.5,-214.25 422,-224.25 429,-224.25"/>
</g>
<!-- 3 -->
<g id="node4" class="node">
<title>3</title>
<polygon fill="#e58139" stroke="black" points="117,-117.5 0,-117.5 0,-79.5 117,-79.5 117,-117.5"/>
<text text-anchor="middle" x="58.5" y="-102.3" font-family="Helvetica,sans-Serif" font-size="14.00">samples = 0.3%</text>
<text text-anchor="middle" x="58.5" y="-87.3" font-family="Helvetica,sans-Serif" font-size="14.00">value = [1.0, 0.0]</text>
</g>
<!-- 2&#45;&gt;3 -->
<g id="edge3" class="edge">
<title>2&#45;&gt;3</title>
<path fill="none" stroke="black" d="M153.73,-160.87C135.14,-148.89 113.17,-134.73 95.02,-123.03"/>
<polygon fill="black" stroke="black" points="96.74,-119.98 86.44,-117.51 92.95,-125.87 96.74,-119.98"/>
</g>
<!-- 4 -->
<g id="node5" class="node">
<title>4</title>
<polygon fill="#399de5" stroke="black" points="252,-117.5 135,-117.5 135,-79.5 252,-79.5 252,-117.5"/>
<text text-anchor="middle" x="193.5" y="-102.3" font-family="Helvetica,sans-Serif" font-size="14.00">samples = 1.0%</text>
<text text-anchor="middle" x="193.5" y="-87.3" font-family="Helvetica,sans-Serif" font-size="14.00">value = [0.0, 1.0]</text>
</g>
<!-- 2&#45;&gt;4 -->
<g id="edge4" class="edge">
<title>2&#45;&gt;4</title>
<path fill="none" stroke="black" d="M193.5,-160.87C193.5,-150.42 193.5,-138.3 193.5,-127.61"/>
<polygon fill="black" stroke="black" points="197,-127.51 193.5,-117.51 190,-127.51 197,-127.51"/>
</g>
<!-- 6 -->
<g id="node7" class="node">
<title>6</title>
<polygon fill="#e78c4a" stroke="black" points="417,-125 270,-125 270,-72 417,-72 417,-125"/>
<text text-anchor="middle" x="343.5" y="-109.8" font-family="Helvetica,sans-Serif" font-size="14.00">Glucose &lt;= 133.0</text>
<text text-anchor="middle" x="343.5" y="-94.8" font-family="Helvetica,sans-Serif" font-size="14.00">samples = 30.7%</text>
<text text-anchor="middle" x="343.5" y="-79.8" font-family="Helvetica,sans-Serif" font-size="14.00">value = [0.923, 0.077]</text>
</g>
<!-- 5&#45;&gt;6 -->
<g id="edge6" class="edge">
<title>5&#45;&gt;6</title>
<path fill="none" stroke="black" d="M401.34,-160.87C392.99,-152.01 383.51,-141.95 374.68,-132.58"/>
<polygon fill="black" stroke="black" points="377.18,-130.13 367.77,-125.25 372.08,-134.93 377.18,-130.13"/>
</g>
<!-- 37 -->
<g id="node10" class="node">
<title>37</title>
<polygon fill="#f3c5a4" stroke="black" points="582,-125 435,-125 435,-72 582,-72 582,-125"/>
<text text-anchor="middle" x="508.5" y="-109.8" font-family="Helvetica,sans-Serif" font-size="14.00">Glucose &lt;= 127.5</text>
<text text-anchor="middle" x="508.5" y="-94.8" font-family="Helvetica,sans-Serif" font-size="14.00">samples = 11.2%</text>
<text text-anchor="middle" x="508.5" y="-79.8" font-family="Helvetica,sans-Serif" font-size="14.00">value = [0.649, 0.351]</text>
</g>
<!-- 5&#45;&gt;37 -->
<g id="edge9" class="edge">
<title>5&#45;&gt;37</title>
<path fill="none" stroke="black" d="M449.95,-160.87C458.41,-152.01 468,-141.95 476.94,-132.58"/>
<polygon fill="black" stroke="black" points="479.56,-134.9 483.93,-125.25 474.5,-130.07 479.56,-134.9"/>
</g>
<!-- 7 -->
<g id="node8" class="node">
<title>7</title>
<polygon fill="#c0c0c0" stroke="black" points="308.5,-36 254.5,-36 254.5,0 308.5,0 308.5,-36"/>
<text text-anchor="middle" x="281.5" y="-14.3" font-family="Helvetica,sans-Serif" font-size="14.00">(...)</text>
</g>
<!-- 6&#45;&gt;7 -->
<g id="edge7" class="edge">
<title>6&#45;&gt;7</title>
<path fill="none" stroke="black" d="M323.2,-71.8C316.24,-62.99 308.46,-53.14 301.53,-44.36"/>
<polygon fill="black" stroke="black" points="304.13,-42.01 295.19,-36.33 298.64,-46.35 304.13,-42.01"/>
</g>
<!-- 26 -->
<g id="node9" class="node">
<title>26</title>
<polygon fill="#c0c0c0" stroke="black" points="380.5,-36 326.5,-36 326.5,0 380.5,0 380.5,-36"/>
<text text-anchor="middle" x="353.5" y="-14.3" font-family="Helvetica,sans-Serif" font-size="14.00">(...)</text>
</g>
<!-- 6&#45;&gt;26 -->
<g id="edge8" class="edge">
<title>6&#45;&gt;26</title>
<path fill="none" stroke="black" d="M346.77,-71.8C347.82,-63.62 348.97,-54.55 350.03,-46.27"/>
<polygon fill="black" stroke="black" points="353.5,-46.69 351.29,-36.33 346.56,-45.81 353.5,-46.69"/>
</g>
<!-- 38 -->
<g id="node11" class="node">
<title>38</title>
<polygon fill="#c0c0c0" stroke="black" points="473.5,-36 419.5,-36 419.5,0 473.5,0 473.5,-36"/>
<text text-anchor="middle" x="446.5" y="-14.3" font-family="Helvetica,sans-Serif" font-size="14.00">(...)</text>
</g>
<!-- 37&#45;&gt;38 -->
<g id="edge10" class="edge">
<title>37&#45;&gt;38</title>
<path fill="none" stroke="black" d="M488.2,-71.8C481.24,-62.99 473.46,-53.14 466.53,-44.36"/>
<polygon fill="black" stroke="black" points="469.13,-42.01 460.19,-36.33 463.64,-46.35 469.13,-42.01"/>
</g>
<!-- 53 -->
<g id="node12" class="node">
<title>53</title>
<polygon fill="#c0c0c0" stroke="black" points="545.5,-36 491.5,-36 491.5,0 545.5,0 545.5,-36"/>
<text text-anchor="middle" x="518.5" y="-14.3" font-family="Helvetica,sans-Serif" font-size="14.00">(...)</text>
</g>
<!-- 37&#45;&gt;53 -->
<g id="edge11" class="edge">
<title>37&#45;&gt;53</title>
<path fill="none" stroke="black" d="M511.77,-71.8C512.82,-63.62 513.97,-54.55 515.03,-46.27"/>
<polygon fill="black" stroke="black" points="518.5,-46.69 516.29,-36.33 511.56,-45.81 518.5,-46.69"/>
</g>
<!-- 67 -->
<g id="node14" class="node">
<title>67</title>
<polygon fill="#e99559" stroke="black" points="851,-214 704,-214 704,-161 851,-161 851,-214"/>
<text text-anchor="middle" x="777.5" y="-198.8" font-family="Helvetica,sans-Serif" font-size="14.00">Age &lt;= 49.0</text>
<text text-anchor="middle" x="777.5" y="-183.8" font-family="Helvetica,sans-Serif" font-size="14.00">samples = 10.4%</text>
<text text-anchor="middle" x="777.5" y="-168.8" font-family="Helvetica,sans-Serif" font-size="14.00">value = [0.862, 0.138]</text>
</g>
<!-- 66&#45;&gt;67 -->
<g id="edge13" class="edge">
<title>66&#45;&gt;67</title>
<path fill="none" stroke="black" d="M777.5,-249.87C777.5,-241.89 777.5,-232.93 777.5,-224.38"/>
<polygon fill="black" stroke="black" points="781,-224.25 777.5,-214.25 774,-224.25 781,-224.25"/>
</g>
<!-- 90 -->
<g id="node21" class="node">
<title>90</title>
<polygon fill="#c8e4f8" stroke="black" points="1198.5,-214 1066.5,-214 1066.5,-161 1198.5,-161 1198.5,-214"/>
<text text-anchor="middle" x="1132.5" y="-198.8" font-family="Helvetica,sans-Serif" font-size="14.00">Glucose &lt;= 132.5</text>
<text text-anchor="middle" x="1132.5" y="-183.8" font-family="Helvetica,sans-Serif" font-size="14.00">samples = 46.4%</text>
<text text-anchor="middle" x="1132.5" y="-168.8" font-family="Helvetica,sans-Serif" font-size="14.00">value = [0.42, 0.58]</text>
</g>
<!-- 66&#45;&gt;90 -->
<g id="edge20" class="edge">
<title>66&#45;&gt;90</title>
<path fill="none" stroke="black" d="M851.06,-257.47C911.08,-242.76 995.59,-222.05 1056.31,-207.17"/>
<polygon fill="black" stroke="black" points="1057.34,-210.52 1066.22,-204.74 1055.68,-203.72 1057.34,-210.52"/>
</g>
<!-- 68 -->
<g id="node15" class="node">
<title>68</title>
<polygon fill="#e78c49" stroke="black" points="747,-125 600,-125 600,-72 747,-72 747,-125"/>
<text text-anchor="middle" x="673.5" y="-109.8" font-family="Helvetica,sans-Serif" font-size="14.00">BMI &lt;= 9.65</text>
<text text-anchor="middle" x="673.5" y="-94.8" font-family="Helvetica,sans-Serif" font-size="14.00">samples = 6.6%</text>
<text text-anchor="middle" x="673.5" y="-79.8" font-family="Helvetica,sans-Serif" font-size="14.00">value = [0.923, 0.077]</text>
</g>
<!-- 67&#45;&gt;68 -->
<g id="edge14" class="edge">
<title>67&#45;&gt;68</title>
<path fill="none" stroke="black" d="M746.86,-160.87C735.95,-151.75 723.53,-141.35 712.05,-131.75"/>
<polygon fill="black" stroke="black" points="714.2,-128.98 704.28,-125.25 709.71,-134.35 714.2,-128.98"/>
</g>
<!-- 77 -->
<g id="node18" class="node">
<title>77</title>
<polygon fill="#eeae80" stroke="black" points="998,-125 765,-125 765,-72 998,-72 998,-125"/>
<text text-anchor="middle" x="881.5" y="-109.8" font-family="Helvetica,sans-Serif" font-size="14.00">DiabetesPedigreeFunction &lt;= 0.231</text>
<text text-anchor="middle" x="881.5" y="-94.8" font-family="Helvetica,sans-Serif" font-size="14.00">samples = 3.8%</text>
<text text-anchor="middle" x="881.5" y="-79.8" font-family="Helvetica,sans-Serif" font-size="14.00">value = [0.737, 0.263]</text>
</g>
<!-- 67&#45;&gt;77 -->
<g id="edge17" class="edge">
<title>67&#45;&gt;77</title>
<path fill="none" stroke="black" d="M808.14,-160.87C819.05,-151.75 831.47,-141.35 842.95,-131.75"/>
<polygon fill="black" stroke="black" points="845.29,-134.35 850.72,-125.25 840.8,-128.98 845.29,-134.35"/>
</g>
<!-- 69 -->
<g id="node16" class="node">
<title>69</title>
<polygon fill="#c0c0c0" stroke="black" points="660.5,-36 606.5,-36 606.5,0 660.5,0 660.5,-36"/>
<text text-anchor="middle" x="633.5" y="-14.3" font-family="Helvetica,sans-Serif" font-size="14.00">(...)</text>
</g>
<!-- 68&#45;&gt;69 -->
<g id="edge15" class="edge">
<title>68&#45;&gt;69</title>
<path fill="none" stroke="black" d="M660.4,-71.8C656.1,-63.35 651.31,-53.95 646.98,-45.45"/>
<polygon fill="black" stroke="black" points="649.99,-43.65 642.33,-36.33 643.75,-46.83 649.99,-43.65"/>
</g>
<!-- 70 -->
<g id="node17" class="node">
<title>70</title>
<polygon fill="#c0c0c0" stroke="black" points="732.5,-36 678.5,-36 678.5,0 732.5,0 732.5,-36"/>
<text text-anchor="middle" x="705.5" y="-14.3" font-family="Helvetica,sans-Serif" font-size="14.00">(...)</text>
</g>
<!-- 68&#45;&gt;70 -->
<g id="edge16" class="edge">
<title>68&#45;&gt;70</title>
<path fill="none" stroke="black" d="M683.98,-71.8C687.38,-63.44 691.17,-54.15 694.61,-45.72"/>
<polygon fill="black" stroke="black" points="697.9,-46.91 698.44,-36.33 691.42,-44.27 697.9,-46.91"/>
</g>
<!-- 78 -->
<g id="node19" class="node">
<title>78</title>
<polygon fill="#c0c0c0" stroke="black" points="872.5,-36 818.5,-36 818.5,0 872.5,0 872.5,-36"/>
<text text-anchor="middle" x="845.5" y="-14.3" font-family="Helvetica,sans-Serif" font-size="14.00">(...)</text>
</g>
<!-- 77&#45;&gt;78 -->
<g id="edge18" class="edge">
<title>77&#45;&gt;78</title>
<path fill="none" stroke="black" d="M869.71,-71.8C865.84,-63.35 861.53,-53.95 857.63,-45.45"/>
<polygon fill="black" stroke="black" points="860.8,-43.96 853.45,-36.33 854.43,-46.88 860.8,-43.96"/>
</g>
<!-- 83 -->
<g id="node20" class="node">
<title>83</title>
<polygon fill="#c0c0c0" stroke="black" points="944.5,-36 890.5,-36 890.5,0 944.5,0 944.5,-36"/>
<text text-anchor="middle" x="917.5" y="-14.3" font-family="Helvetica,sans-Serif" font-size="14.00">(...)</text>
</g>
<!-- 77&#45;&gt;83 -->
<g id="edge19" class="edge">
<title>77&#45;&gt;83</title>
<path fill="none" stroke="black" d="M893.29,-71.8C897.16,-63.35 901.47,-53.95 905.37,-45.45"/>
<polygon fill="black" stroke="black" points="908.57,-46.88 909.55,-36.33 902.2,-43.96 908.57,-46.88"/>
</g>
<!-- 91 -->
<g id="node22" class="node">
<title>91</title>
<polygon fill="#f6d2b8" stroke="black" points="1249,-125 1016,-125 1016,-72 1249,-72 1249,-125"/>
<text text-anchor="middle" x="1132.5" y="-109.8" font-family="Helvetica,sans-Serif" font-size="14.00">DiabetesPedigreeFunction &lt;= 0.739</text>
<text text-anchor="middle" x="1132.5" y="-94.8" font-family="Helvetica,sans-Serif" font-size="14.00">samples = 26.4%</text>
<text text-anchor="middle" x="1132.5" y="-79.8" font-family="Helvetica,sans-Serif" font-size="14.00">value = [0.609, 0.391]</text>
</g>
<!-- 90&#45;&gt;91 -->
<g id="edge21" class="edge">
<title>90&#45;&gt;91</title>
<path fill="none" stroke="black" d="M1132.5,-160.87C1132.5,-152.89 1132.5,-143.93 1132.5,-135.38"/>
<polygon fill="black" stroke="black" points="1136,-135.25 1132.5,-125.25 1129,-135.25 1136,-135.25"/>
</g>
<!-- 166 -->
<g id="node25" class="node">
<title>166</title>
<polygon fill="#6ab5eb" stroke="black" points="1414,-125 1267,-125 1267,-72 1414,-72 1414,-125"/>
<text text-anchor="middle" x="1340.5" y="-109.8" font-family="Helvetica,sans-Serif" font-size="14.00">BMI &lt;= 30.05</text>
<text text-anchor="middle" x="1340.5" y="-94.8" font-family="Helvetica,sans-Serif" font-size="14.00">samples = 20.1%</text>
<text text-anchor="middle" x="1340.5" y="-79.8" font-family="Helvetica,sans-Serif" font-size="14.00">value = [0.197, 0.803]</text>
</g>
<!-- 90&#45;&gt;166 -->
<g id="edge24" class="edge">
<title>90&#45;&gt;166</title>
<path fill="none" stroke="black" d="M1193.5,-160.98C1217.52,-150.94 1245.26,-139.34 1270.12,-128.94"/>
<polygon fill="black" stroke="black" points="1271.62,-132.1 1279.5,-125.01 1268.92,-125.64 1271.62,-132.1"/>
</g>
<!-- 92 -->
<g id="node23" class="node">
<title>92</title>
<polygon fill="#c0c0c0" stroke="black" points="1123.5,-36 1069.5,-36 1069.5,0 1123.5,0 1123.5,-36"/>
<text text-anchor="middle" x="1096.5" y="-14.3" font-family="Helvetica,sans-Serif" font-size="14.00">(...)</text>
</g>
<!-- 91&#45;&gt;92 -->
<g id="edge22" class="edge">
<title>91&#45;&gt;92</title>
<path fill="none" stroke="black" d="M1120.71,-71.8C1116.84,-63.35 1112.53,-53.95 1108.63,-45.45"/>
<polygon fill="black" stroke="black" points="1111.8,-43.96 1104.45,-36.33 1105.43,-46.88 1111.8,-43.96"/>
</g>
<!-- 157 -->
<g id="node24" class="node">
<title>157</title>
<polygon fill="#c0c0c0" stroke="black" points="1195.5,-36 1141.5,-36 1141.5,0 1195.5,0 1195.5,-36"/>
<text text-anchor="middle" x="1168.5" y="-14.3" font-family="Helvetica,sans-Serif" font-size="14.00">(...)</text>
</g>
<!-- 91&#45;&gt;157 -->
<g id="edge23" class="edge">
<title>91&#45;&gt;157</title>
<path fill="none" stroke="black" d="M1144.29,-71.8C1148.16,-63.35 1152.47,-53.95 1156.37,-45.45"/>
<polygon fill="black" stroke="black" points="1159.57,-46.88 1160.55,-36.33 1153.2,-43.96 1159.57,-46.88"/>
</g>
<!-- 167 -->
<g id="node26" class="node">
<title>167</title>
<polygon fill="#c0c0c0" stroke="black" points="1331.5,-36 1277.5,-36 1277.5,0 1331.5,0 1331.5,-36"/>
<text text-anchor="middle" x="1304.5" y="-14.3" font-family="Helvetica,sans-Serif" font-size="14.00">(...)</text>
</g>
<!-- 166&#45;&gt;167 -->
<g id="edge25" class="edge">
<title>166&#45;&gt;167</title>
<path fill="none" stroke="black" d="M1328.71,-71.8C1324.84,-63.35 1320.53,-53.95 1316.63,-45.45"/>
<polygon fill="black" stroke="black" points="1319.8,-43.96 1312.45,-36.33 1313.43,-46.88 1319.8,-43.96"/>
</g>
<!-- 174 -->
<g id="node27" class="node">
<title>174</title>
<polygon fill="#c0c0c0" stroke="black" points="1403.5,-36 1349.5,-36 1349.5,0 1403.5,0 1403.5,-36"/>
<text text-anchor="middle" x="1376.5" y="-14.3" font-family="Helvetica,sans-Serif" font-size="14.00">(...)</text>
</g>
<!-- 166&#45;&gt;174 -->
<g id="edge26" class="edge">
<title>166&#45;&gt;174</title>
<path fill="none" stroke="black" d="M1352.29,-71.8C1356.16,-63.35 1360.47,-53.95 1364.37,-45.45"/>
<polygon fill="black" stroke="black" points="1367.57,-46.88 1368.55,-36.33 1361.2,-43.96 1367.57,-46.88"/>
</g>
</g>
</svg>
